<svg xmlns="http://www.w3.org/2000/svg" width="763" height="256" viewBox="0 0 763 256" version="1.1">
  <path style="fill:#2a415d" d="M 194.6,226.1 61.5,226.1 20,104.6 128,29.9 236,104.6 Z" />
  <path style="fill:#00bbbf" d="m 116.1,76.3 h -0.2 c -5,0.5 -4.5,17.3 -4.1,27.1 -1.7,0.8 -3.3,2.4 -5.2,4 -5.2,-11.3 -27,-33.4 -37.1,-26.8 -9.9,6.5 1.3,34.1 24.1,50.3 -0.8,2.6 -1.1,4.9 -1.1,7.1 -0.2,0.8 -22.7,13.2 -42.3,54.9 l 11.3,33.2 c 10,-20.3 21.5,-45.6 36.2,-55.3 1.5,-0.5 2.9,-0.7 4.1,-0.4 3,3.1 4.2,4.2 6,5.8 -5.8,17.5 1.2,41.6 16.3,42.2 15.1,0.5 27.3,-19 23.7,-42.7 11.7,-9.8 17.2,-23.2 16.5,-40.4 22.3,-6.6 38,-40.8 28.3,-48.3 -9.6,-7.6 -29.7,8.8 -36.5,25.5 -2.1,-3.1 -4.4,-5.6 -7.1,-7.6 2.5,-9 5.4,-26.1 1.1,-27.5 -4.3,-1.5 -10.6,11.2 -14.4,21.2 -2.9,-0.4 -6.6,-0.4 -9.5,-0.1 -1.9,-7.6 -5.1,-22.1 -10.1,-22.2 z m -1.2,48.8 c 4.1,-0.2 7.5,2.2 7.7,5.5 0.1,3.3 -3.1,6 -7.2,6.2 -4.1,0.2 -7.5,-2.2 -7.7,-5.5 -0.1,-3.3 3.1,-6 7.2,-6.2 z m 29.5,2.8 c 3.9,1.2 6.3,4.8 5.3,7.9 -1.1,3.1 -5,4.5 -8.9,3.2 -3.9,-1.2 -6.2,-4.7 -5.3,-7.8 1.3,-3.8 6.2,-4.2 8.9,-3.3 z" />
  <g style="fill:#2a415d">
    <path d="m 675.3,109.6 1.1,17.7 15,-2.6 7.4,68.1 16.7,-1.3 8.9,-71.3 17.7,-2.6 0.3,-11.1 -16.9,1.3 3.6,-27.8 -41.9,5.8 2.9,23.7 z" />
    <circle cx="647" cy="79.5" r="15" />
    <path d="m 630.7,109.7 35.9,-5.5 -10.4,87.2 -16.8,1.5 z" />
    <path d="m 526.3,80.6 39.6,-2.2 -5.3,50.6 39.1,-50.8 14.9,11.5 -35.6,37.2 41.9,63.2 -36.1,2.6 -22.3,-48 -3.7,3.5 -4.4,42.5 -18.9,1.8 z" />
    <path d="m 445.3,81 39.8,-2.3 -12,99.9 43,-5.4 -0.6,17.3 -62.4,1.6 z" />
    <path d="m 290.2,191 16.6,-0.8 2.4,-80.5 h 1.4 l 36.5,83.1 14.6,-2.4 18.6,-87 h 1.7 l 24,89.6 14.8,-2.7 -5.1,-109.2 -40.7,-2.3 -19.5,80.9 -17.1,-80.2 -40.7,1.6 z" />
  </g>
</svg>
