<svg xmlns="http://www.w3.org/2000/svg" width="256" height="256" viewBox="0 0 256 256" version="1.1">
  <g style="fill:#2a415d">
    <path d="m 182.7,197.5 0.4,6.1 5.2,-0.9 2.6,23.4 5.7,-0.5 3.1,-24.5 6.1,-0.9 0.1,-3.8 -5.8,0.5 1.2,-9.6 -14.4,2 1,8.1 z" />
    <ellipse cx="173" cy="187.2" ry="5" rx="5" />
    <path d="m 167.3,197.5 12.3,-1.9 -3.6,30 -5.8,0.5 z" />
    <path d="m 131.4,187.5 13.6,-0.7 -1.8,17.4 13.4,-17.5 5.1,4 -12.2,12.8 14.4,21.7 -12.4,0.9 -7.7,-16.5 -1.3,1.2 -1.5,14.6 -6.5,0.6 z" />
    <path d="m 103.6,187.6 13.7,-0.8 -4.1,34.4 14.8,-1.9 -0.2,5.9 -21.5,0.5 z" />
    <path d="m 50.2,225.5 5.7,-0.3 0.8,-27.7 h 0.5 l 12.6,28.6 5,-0.8 6.4,-29.9 h 0.6 l 8.3,30.8 5.1,-0.9 -1.7,-37.6 -14,-0.8 -6.7,27.8 -5.9,-27.6 -14,0.5 z" />
  </g>
  <path style="fill:#2a415d" d="M 176.2,171.9 H 79.9 L 49.8,84 128,29.9 206.2,84 Z" />
  <path style="fill:#00bbbf" d="m 119.4,63.5 h -0.1 c -3.6,0.4 -3.3,12.5 -3,19.6 -1.2,0.6 -2.4,1.7 -3.8,2.9 C 108.7,77.8 93,61.8 85.6,66.6 c -7.2,4.7 0.9,24.7 17.4,36.4 -0.6,1.9 -0.8,3.5 -0.8,5.1 -0.1,0.6 -16.4,9.6 -30.6,39.7 l 8.3,24.1 c 7.2,-14.7 15.5,-33.1 26.1,-40.1 1.1,-0.4 2.1,-0.5 3,-0.3 2.2,2.2 3,3 4.3,4.2 -4.2,12.7 0.9,30.1 11.8,30.5 10.9,0.4 19.8,-13.8 17.2,-30.9 8.5,-7.1 12.4,-16.8 11.9,-29.2 16.1,-4.8 27.5,-29.5 20.5,-35 -6.9,-5.5 -21.5,6.4 -26.4,18.5 -1.5,-2.2 -3.2,-4.1 -5.1,-5.5 1.8,-6.5 3.9,-18.9 0.8,-19.9 -3.1,-1.1 -7.7,8.1 -10.4,15.3 -2.1,-0.3 -4.8,-0.3 -6.9,-0.1 -1.4,-5.5 -3.7,-16 -7.3,-16.1 z m -0.9,35.3 c 3,-0.1 5.4,1.6 5.6,4 0.1,2.4 -2.2,4.3 -5.2,4.5 -3,0.1 -5.4,-1.6 -5.6,-4 -0.1,-2.4 2.2,-4.3 5.2,-4.5 z m 21.4,2 c 2.8,0.9 4.6,3.5 3.8,5.7 -0.8,2.2 -3.6,3.3 -6.4,2.3 -2.8,-0.9 -4.5,-3.4 -3.8,-5.6 0.9,-2.8 4.5,-3 6.4,-2.4 z" />
</svg>
